<svg height="30" viewBox="0 0 30 30" width="30" xmlns="http://www.w3.org/2000/svg"><g fill="none" fill-rule="evenodd" transform="translate(-1 -1)"><path d="m0 0h32v32h-32z" fill="#fff" opacity="0"/><g stroke="#fff" stroke-width="1.5"><path d="m22 30h8v-8" stroke-linejoin="round"/><path d="m10 30h-8v-8" stroke-linejoin="round"/><path d="m22 2h8v8" stroke-linejoin="round"/><path d="m16.1 16.45c1.8 0 3.45.75 4.6 1.9s1.9 2.8 1.9 4.6v.55h-13c0-.2 0-.35 0-.55 0-1.8.75-3.45 1.9-4.6s2.8-1.9 4.6-1.9zm0-9.5c.9 0 1.7.35 2.25.95s.95 1.4.95 2.25-.35 1.7-.95 2.25c-.6.6-1.4.95-2.25.95s-1.7-.35-2.25-.95c-.6-.6-.95-1.4-.95-2.25s.35-1.7.95-2.25c.6-.6 1.4-.95 2.25-.95z"/><path d="m2 10v-8h8" stroke-linejoin="round"/></g></g></svg>