<svg height="30" viewBox="0 0 30 30" width="30" xmlns="http://www.w3.org/2000/svg" xmlns:xlink="http://www.w3.org/1999/xlink"><mask id="a" fill="#fff"><path d="m22.34 0-11.17 7.20481516-11.17-7.20481516" fill="#fff" fill-rule="evenodd"/></mask><g fill="none" fill-rule="evenodd" transform="translate(1 1)"><g stroke="#fff" stroke-linejoin="round" stroke-width="1.5"><path d="m20 28h8v-8"/><path d="m8 28h-8v-8"/><path d="m20 0h8v8"/><path d="m0 8v-8h8"/></g><g transform="translate(3 14)"><path d="m22.7442187.0425-11.3442187 6.9575-11-6.9575z" fill="none"/><circle cx="10" cy="7" mask="url(#a)" r="6.25" stroke="#fff" stroke-width="1.5"/></g><path d="m4 19.8958906 12.3653792-.0157136 7.0464353-10.880177" stroke="#fff" stroke-width="1.5" transform="matrix(.8660254 .5 -.5 .8660254 9.060216 -4.917296)"/><g fill="#fff" fill-rule="nonzero" transform="translate(8.128956 5.82)"><path d="m.623 5.18v-4.221h-.623v-.889h1.575v5.11z"/><path d="m2.79066667 4.284c0-.21933333.03966666-.41766667.119-.595.07933333-.17733333.18316666-.3395.3115-.4865.12833333-.147.273-.28116667.434-.4025s.32083333-.23566667.4795-.343c.126-.08866667.24733333-.17383333.364-.2555.11666666-.08166667.21933333-.16333333.308-.245.08866666-.08166667.15983333-.16566667.2135-.252.05366666-.08633333.0805-.1785.0805-.2765 0-.168-.0595-.3115-.1785-.4305s-.29283334-.1785-.5215-.1785c-.224 0-.40716667.06766667-.5495.203-.14233334.13533333-.25783334.31033333-.3465.525l-.819-.413c.15866666-.35.3815-.6265.6685-.8295s.63816666-.3045 1.0535-.3045c.25666666 0 .48766666.03733333.693.112.20533333.07466667.38033333.17616667.525.3045.14466666.12833333.25433333.28.329.455.07466666.175.112.36283333.112.5635 0 .20533333-.03733334.38733333-.112.546-.07466667.15866667-.17266667.3045-.294.4375-.12133334.133-.25783334.2555-.4095.3675-.15166667.112-.3045.21933333-.4585.322-.13533334.08866667-.26483334.17616667-.3885.2625-.12366667.08633333-.2345.17616667-.3325.2695s-.17733334.19133333-.238.294c-.06066667.10266667-.091.21466667-.091.336h2.303v.91h-3.255z"/><path d="m8.41633333 5.25c-.32666666 0-.6265-.05483333-.8995-.1645s-.51916666-.29283333-.7385-.5495l.826-.616c.10733334.16333333.22866667.28116667.364.3535.13533334.07233333.28233334.1085.441.1085.21933334 0 .40016667-.0595.5425-.1785.14233334-.119.2135-.28583333.2135-.5005s-.0805-.38616667-.2415-.5145-.37216666-.1925-.6335-.1925h-.525v-.875h.525c.28 0 .48533334-.06766667.616-.203.13066667-.13533333.196-.294.196-.476 0-.18666667-.06533333-.336-.196-.448-.13066666-.112-.30566666-.168-.525-.168-.20066666 0-.3605.04433333-.4795.133s-.21816666.20766667-.2975.357l-.812-.42c.14933334-.28.36516667-.49933333.6475-.658.28233334-.15866667.5915-.238.9275-.238.24733334 0 .47366667.03383333.679.1015.20533334.06766667.38033334.16333333.525.287.14466667.12366667.25666667.27416667.336.4515.07933334.17733333.11899997.37566667.11899997.595 0 .23333333-.0513333.44216667-.15399997.6265-.10266666.18433333-.245.34183333-.427.4725.21.12133333.3745.28.4935.476.11899997.196.17849997.427.17849997.693 0 .21933333-.0373333.4235-.112.6125-.07466663.189-.18316663.35233333-.32549997.49-.14233333.13766667-.31966666.24616667-.532.3255-.21233333.07933333-.45616666.119-.7315.119z"/><path d="m12.138 2.471c-.1726667 0-.3336667-.03266667-.483-.098s-.28-.154-.392-.266-.2006667-.24266667-.266-.392-.098-.31033333-.098-.483c0-.168.0326667-.32666667.098-.476s.154-.28.266-.392.2426667-.20066667.392-.266.3103333-.098.483-.098.3336667.03266667.483.098.28.154.392.266.1995.24266667.2625.392.0945.308.0945.476c0 .17266667-.0315.33366667-.0945.483s-.1505.28-.2625.392-.2426667.20066667-.392.266-.3103333.098-.483.098zm0-.798c.1213333 0 .2251667-.04316667.3115-.1295s.1295-.19016667.1295-.3115-.0431667-.22516667-.1295-.3115-.1901667-.1295-.3115-.1295-.2251667.04316667-.3115.1295-.1295.19016667-.1295.3115.0431667.22516667.1295.3115.1901667.1295.3115.1295z"/></g></g></svg>