<svg height="32" viewBox="0 0 32 32" width="32" xmlns="http://www.w3.org/2000/svg" xmlns:xlink="http://www.w3.org/1999/xlink"><defs><path id="a" d="m20.3442187 0-10.3442187 8.9575-10-8.9575z"/><mask id="b" fill="#fff"><use fill="#fff" fill-rule="evenodd" xlink:href="#a"/></mask></defs><g fill="none" fill-rule="evenodd"><path d="m0 0h32v32h-32z"/><g transform="translate(2 2)"><g fill="#fff" fill-rule="nonzero" transform="translate(9.623 5.82)"><path d="m1.813 5.25c-.58333333 0-1.03133333-.14233333-1.344-.427s-.469-.67433333-.469-1.169c0-.266.05483333-.49816667.1645-.6965s.26483333-.36516667.4655-.5005c-.14466667-.12133333-.25666667-.26483333-.336-.4305s-.119-.35583333-.119-.5705c0-.21933333.03966667-.41883333.119-.5985s.1925-.3325.3395-.4585.32316667-.224.5285-.294.434-.105.686-.105c.24733333 0 .4725.035.6755.105s.378.168.525.294.26016667.27883333.3395.4585.119.37916667.119.5985-.04316667.41183333-.1295.5775-.20416667.30916667-.3535.4305c.196.13533333.34766667.30216667.455.5005s.161.42816667.161.6895c0 .49466667-.15983333.88433333-.4795 1.169s-.76883333.427-1.3475.427zm0-.84c.30333333 0 .532-.0735.686-.2205s.231-.3255.231-.5355-.07583333-.3885-.2275-.5355-.3745-.2205-.6685-.2205c-.29866667 0-.52616667.0735-.6825.2205s-.2345.3255-.2345.5355.07233333.3885.217.5355.371.2205.679.2205zm.014-2.31c.266 0 .46783333-.063.6055-.189s.2065-.27766667.2065-.455-.06766667-.33016667-.203-.4585-.329-.1925-.581-.1925c-.25666667 0-.45616667.06416667-.5985.1925s-.2135.28116667-.2135.4585c0 .182.06416667.33483333.1925.4585s.3255.1855.5915.1855z"/><path d="m6.00366667 5.25c-.32666667 0-.6265-.05483333-.8995-.1645s-.51916667-.29283333-.7385-.5495l.826-.616c.10733333.16333333.22866666.28116667.364.3535.13533333.07233333.28233333.1085.441.1085.21933333 0 .40016666-.0595.5425-.1785.14233333-.119.2135-.28583333.2135-.5005s-.0805-.38616667-.2415-.5145-.37216667-.1925-.6335-.1925h-.525v-.875h.525c.28 0 .48533333-.06766667.616-.203.13066666-.13533333.196-.294.196-.476 0-.18666667-.06533334-.336-.196-.448-.13066667-.112-.30566667-.168-.525-.168-.20066667 0-.3605.04433333-.4795.133s-.21816667.20766667-.2975.357l-.812-.42c.14933333-.28.36516666-.49933333.6475-.658.28233333-.15866667.5915-.238.9275-.238.24733333 0 .47366666.03383333.679.1015.20533333.06766667.38033333.16333333.525.287.14466666.12366667.25666666.27416667.336.4515.07933333.17733333.119.37566667.119.595 0 .23333333-.05133334.44216667-.154.6265-.10266667.18433333-.245.34183333-.427.4725.21.12133333.3745.28.4935.476s.1785.427.1785.693c0 .21933333-.03733334.4235-.112.6125-.07466667.189-.18316667.35233333-.3255.49-.14233334.13766667-.31966667.24616667-.532.3255-.21233334.07933333-.45616667.119-.7315.119z"/><path d="m9.72533333 2.471c-.17266666 0-.33366666-.03266667-.483-.098-.14933333-.06533333-.28-.154-.392-.266s-.20066666-.24266667-.266-.392c-.06533333-.14933333-.098-.31033333-.098-.483 0-.168.03266667-.32666667.098-.476.06533334-.14933333.154-.28.266-.392s.24266667-.20066667.392-.266c.14933334-.06533333.31033334-.098.483-.098.17266667 0 .33366667.03266667.48299997.098.1493334.06533333.28.154.392.266s.1995.24266667.2625.392.0945.308.0945.476c0 .17266667-.0315.33366667-.0945.483s-.1505.28-.2625.392-.2426666.20066667-.392.266c-.1493333.06533333-.3103333.098-.48299997.098zm0-.798c.12133334 0 .22516667-.04316667.31149997-.1295.0863334-.08633333.1295-.19016667.1295-.3115s-.0431666-.22516667-.1295-.3115c-.0863333-.08633333-.19016663-.1295-.31149997-.1295-.12133333 0-.22516666.04316667-.3115.1295-.08633333.08633333-.1295.19016667-.1295.3115s.04316667.22516667.1295.3115c.08633334.08633333.19016667.1295.3115.1295z"/></g><g stroke="#fff" stroke-linejoin="round" stroke-width="1.5"><path d="m20 28h8v-8"/><path d="m8 28h-8v-8"/><path d="m20 0h8v8"/><path d="m0 8v-8h8"/></g><g transform="translate(4 12.0425)"><use fill="none" xlink:href="#a"/><circle cx="10" cy="8.9575" mask="url(#b)" r="6.25" stroke="#fff" stroke-width="1.5"/></g><path d="m24.4110349 10.1975045-10.266856 11.0098552-10.07314396-11.1873597" stroke="#fff" stroke-width="1.5"/></g></g></svg>