					<svg enable-background="new 0 0 20 20" viewBox="0 0 20 20" xmlns="http://www.w3.org/2000/svg">
						<path d="m0 0h20v20h-20z" fill="none" />
						<g clip-rule="evenodd" fill-rule="evenodd">
							<g transform="translate(14 14)">
								<path
									d="m-8.6.6c-1.2-1.2-1.9-2.9-1.9-4.6s.7-3.4 1.9-4.6 2.9-1.9 4.6-1.9 3.4.7 4.6 1.9 2 2.9 2 4.6-.7 3.4-2 4.6-2.9 2-4.6 2-3.4-.7-4.6-2zm9.9.7c1.4-1.4 2.2-3.3 2.2-5.3s-.8-3.9-2.2-5.3-3.3-2.2-5.3-2.2-3.9.8-5.3 2.2-2.2 3.3-2.2 5.3.8 3.9 2.2 5.3 3.3 2.2 5.3 2.2c2 0 3.9-.8 5.3-2.2z"
								/>
								<path d="m-5.3-5.1-.1.4.4.1c.3.1.3.2.3.4l-.7 3.3c-.2.8.1 1.2.8 1.2.5 0 1.1-.2 1.4-.6l.1-.4c-.2.2-.5.2-.6.2-.3 0-.4-.2-.3-.5l.9-4.4z" />
							</g>
							<circle cx="10" cy="6.8" r="1" />
						</g>
					</svg>
